<svg xmlns="http://www.w3.org/2000/svg" xmlns:xlink="http://www.w3.org/1999/xlink" viewBox="0 0 74 76" fill="#fff" fill-rule="evenodd" stroke="#000" stroke-linecap="round" stroke-linejoin="round"><use xlink:href="#A" x=".5" y=".5"/><symbol id="A" overflow="visible"><g stroke="none" fill-rule="nonzero"><path d="M39.92 13.951l-4.846 18.685-18.91 5.231 18.91 4.605 4.846 18.31 5.352-18.31 18.284-4.605-18.284-5.231z" fill="#030303"/><path d="M19.894 37.243h19.783l-4.353-3.983zM39.921 57.42V37.867l-4.597 3.981z"/><path d="M44.28 41.849l16.421-3.981H39.92zm-4.36-4.605l4.36-3.983-4.36-15.569z"/><path d="M42.784 4.985v4.979c-.623-1.492-1.245-2.492-2.113-3.985L36.938.127h-1.492v11.834h1.492V6.98 1.994c.623 1.247 1.243 2.74 2.113 3.984l3.729 5.858h1.492V0H42.78l.004 4.985h0zM10.938 37.868l-.87 3.978-.874-3.978-1.486-5.854H6.214l-1.494 5.854c-.25 1.49-.87 2.733-.87 3.978-.252-.865-.622-2.488-.872-3.978l-1.491-5.854H0l3.108 11.834h1.489l1.495-6.228c.244-1.491.867-2.741.867-3.985l.872 3.985 1.494 6.228h1.487l3.357-11.834h-1.491l-1.74 5.854zm54.74 6.231h6.469v-1.625h-4.978v-4.361h4.727v-.868h-4.727v-3.737h4.978V32.26h-6.469zM41.165 68.256c-1.488-.874-2.488-1.246-2.488-2.491 0-.874.623-1.869 2.113-1.869.87 0 1.87.371 2.117.623l.375-1.245c-.375-.253-1.247-.625-2.492-.625-2.113 0-3.732 1.498-3.732 3.365s1.245 2.74 3.109 3.362c1.494.868 2.117 1.489 2.117 2.491 0 1.245-.873 2.112-2.491 2.112-1.246 0-2.114-.623-2.734-.867v.867c.622.622 1.865.871 3.109.871 2.738 0 3.982-1.494 3.982-3.365.13-1.728-1.116-2.352-2.985-3.229z" fill="#030303"/></g></symbol></svg>